STARTFONT 2.3
FONT -FontForge-Monoton-Book-R-Normal--11-110-72-72-P-74-ISO10646-1
SIZE 11 72 72  2
FONTBOUNDINGBOX 21 18 -2 -5
COMMENT "Generated by fontforge, http://fontforge.sourceforge.net"
COMMENT "Copyright (c) 2011 by vernon adams. All rights reserved."
STARTPROPERTIES 41
FOUNDRY "FontForge"
FAMILY_NAME "Monoton"
WEIGHT_NAME "Book"
SLANT "R"
SETWIDTH_NAME "Normal"
ADD_STYLE_NAME ""
PIXEL_SIZE 11
POINT_SIZE 110
RESOLUTION_X 72
RESOLUTION_Y 72
SPACING "P"
AVERAGE_WIDTH 74
CHARSET_REGISTRY "ISO10646"
CHARSET_ENCODING "1"
FONTNAME_REGISTRY ""
CHARSET_COLLECTIONS "ISO8859-2 ISO8859-9 ISO8859-4 ISO10646-1"
BITS_PER_PIXEL 2
FONT_NAME "Monoton-Regular"
FACE_NAME "Monoton"
COPYRIGHT "Copyright (c) 2011 by vernon adams. All rights reserved."
FONT_VERSION "1.000"
FONT_ASCENT 9
FONT_DESCENT 2
UNDERLINE_POSITION -1
UNDERLINE_THICKNESS 1
X_HEIGHT 7
CAP_HEIGHT 8
DEFAULT_CHAR 1
RAW_ASCENT 799
RAW_DESCENT 200
NORM_SPACE 1
RELATIVE_WEIGHT 40
RELATIVE_SETWIDTH 50
SUPERSCRIPT_X 0
SUPERSCRIPT_Y 3
SUPERSCRIPT_SIZE 6
SUBSCRIPT_X 0
SUBSCRIPT_Y 0
SUBSCRIPT_SIZE 6
AVG_LOWERCASE_WIDTH 79
AVG_UPPERCASE_WIDTH 87
ENDPROPERTIES
CHARS 372
STARTCHAR glyph1.dup1
ENCODING 0
SWIDTH 108 0
DWIDTH 1 0
BBX 1 1 0 0
BITMAP
00
ENDCHAR
STARTCHAR uni0002
ENCODING 2
SWIDTH 108 0
DWIDTH 1 0
BBX 1 1 0 0
BITMAP
00
ENDCHAR
STARTCHAR uni0009
ENCODING 9
SWIDTH 108 0
DWIDTH 1 0
BBX 1 1 0 0
BITMAP
00
ENDCHAR
STARTCHAR uni000A
ENCODING 10
SWIDTH 108 0
DWIDTH 1 0
BBX 1 1 0 0
BITMAP
00
ENDCHAR
STARTCHAR uni000D
ENCODING 13
SWIDTH 108 0
DWIDTH 1 0
BBX 1 1 0 0
BITMAP
00
ENDCHAR
STARTCHAR space
ENCODING 32
SWIDTH 108 0
DWIDTH 1 0
BBX 1 1 0 0
BITMAP
00
ENDCHAR
STARTCHAR exclam
ENCODING 33
SWIDTH 336 0
DWIDTH 4 0
BBX 4 10 0 -1
BITMAP
59
59
59
59
59
59
54
54
54
54
ENDCHAR
STARTCHAR quotedbl
ENCODING 34
SWIDTH 538 0
DWIDTH 6 0
BBX 6 4 0 5
BITMAP
5550
5550
5550
5550
ENDCHAR
STARTCHAR numbersign
ENCODING 35
SWIDTH 1014 0
DWIDTH 11 0
BBX 11 10 0 -1
BITMAP
015150
056564
059694
169654
054540
054540
165A50
6AA990
151500
151500
ENDCHAR
STARTCHAR dollar
ENCODING 36
SWIDTH 686 0
DWIDTH 8 0
BBX 7 13 0 -2
BITMAP
0040
0000
1AA4
5564
5940
5950
1A94
1558
0558
1568
69A4
0500
0140
ENDCHAR
STARTCHAR percent
ENCODING 37
SWIDTH 1504 0
DWIDTH 17 0
BBX 17 11 0 -1
BITMAP
0100000000
1A90540000
5554A00000
5994900000
599551A400
5555555900
1A928A5600
0106496640
0005465900
0006419500
0005005000
ENDCHAR
STARTCHAR ampersand
ENCODING 38
SWIDTH 1029 0
DWIDTH 11 0
BBX 11 9 0 0
BITMAP
05A250
26A290
595290
595694
655694
595694
595694
2AA564
16A464
ENDCHAR
STARTCHAR quotesingle
ENCODING 39
SWIDTH 257 0
DWIDTH 3 0
BBX 3 4 0 5
BITMAP
54
54
54
54
ENDCHAR
STARTCHAR parenleft
ENCODING 40
SWIDTH 410 0
DWIDTH 5 0
BBX 4 11 0 -1
BITMAP
01
1A
29
59
58
58
58
59
56
26
05
ENDCHAR
STARTCHAR parenright
ENCODING 41
SWIDTH 408 0
DWIDTH 5 0
BBX 4 11 0 -1
BITMAP
40
64
59
5A
16
16
16
16
6A
69
54
ENDCHAR
STARTCHAR asterisk
ENCODING 42
SWIDTH 664 0
DWIDTH 7 0
BBX 7 7 0 1
BITMAP
0540
1950
6954
2760
6954
1994
0540
ENDCHAR
STARTCHAR plus
ENCODING 43
SWIDTH 601 0
DWIDTH 7 0
BBX 6 5 0 2
BITMAP
0A40
5A90
5A50
5A90
0A40
ENDCHAR
STARTCHAR comma
ENCODING 44
SWIDTH 252 0
DWIDTH 3 0
BBX 3 4 0 -2
BITMAP
54
54
54
50
ENDCHAR
STARTCHAR hyphen
ENCODING 45
SWIDTH 473 0
DWIDTH 5 0
BBX 5 3 0 3
BITMAP
5540
5540
5540
ENDCHAR
STARTCHAR period
ENCODING 46
SWIDTH 255 0
DWIDTH 3 0
BBX 3 2 0 0
BITMAP
64
64
ENDCHAR
STARTCHAR slash
ENCODING 47
SWIDTH 447 0
DWIDTH 5 0
BBX 5 10 0 -1
BITMAP
0540
0540
0A00
0900
1500
1500
2800
2400
5400
5400
ENDCHAR
STARTCHAR zero
ENCODING 48
SWIDTH 843 0
DWIDTH 9 0
BBX 9 11 0 -1
BITMAP
004000
06A500
155600
655A40
590A40
580680
590A40
655940
295A00
0A6900
015000
ENDCHAR
STARTCHAR one
ENCODING 49
SWIDTH 426 0
DWIDTH 5 0
BBX 5 9 0 0
BITMAP
6A00
6A00
1640
1640
1640
1640
1640
1640
1640
ENDCHAR
STARTCHAR two
ENCODING 50
SWIDTH 583 0
DWIDTH 6 0
BBX 6 10 0 0
BITMAP
1400
6A50
5590
15A0
01A0
0590
1A40
1500
6A90
6A90
ENDCHAR
STARTCHAR three
ENCODING 51
SWIDTH 612 0
DWIDTH 7 0
BBX 7 11 0 -1
BITMAP
1500
6A50
5590
1554
0594
0A60
0A64
1654
55A0
6590
1500
ENDCHAR
STARTCHAR four
ENCODING 52
SWIDTH 622 0
DWIDTH 7 0
BBX 7 9 0 0
BITMAP
0550
0690
1940
1640
6960
6A64
5554
5564
0060
ENDCHAR
STARTCHAR five
ENCODING 53
SWIDTH 691 0
DWIDTH 8 0
BBX 8 10 0 -1
BITMAP
6AA4
6AA4
5400
5550
5A94
5559
0559
1568
65A4
0540
ENDCHAR
STARTCHAR six
ENCODING 54
SWIDTH 781 0
DWIDTH 9 0
BBX 9 11 0 -1
BITMAP
014000
16A900
195400
595000
595400
59A500
595640
595640
195A00
166900
015000
ENDCHAR
STARTCHAR seven
ENCODING 55
SWIDTH 631 0
DWIDTH 7 0
BBX 7 9 0 0
BITMAP
6994
6A54
0160
0290
0650
0550
0580
0A40
0940
ENDCHAR
STARTCHAR eight
ENCODING 56
SWIDTH 808 0
DWIDTH 9 0
BBX 9 11 0 -1
BITMAP
015000
1AA900
555940
595940
595940
66A600
59A540
595940
595540
195900
015000
ENDCHAR
STARTCHAR nine
ENCODING 57
SWIDTH 782 0
DWIDTH 9 0
BBX 9 11 0 -1
BITMAP
014000
1AA400
696500
595600
595640
56A640
169640
015A00
055900
196400
014000
ENDCHAR
STARTCHAR colon
ENCODING 58
SWIDTH 262 0
DWIDTH 3 0
BBX 3 6 0 1
BITMAP
50
54
50
50
50
50
ENDCHAR
STARTCHAR semicolon
ENCODING 59
SWIDTH 261 0
DWIDTH 3 0
BBX 3 7 0 0
BITMAP
50
54
50
54
54
14
50
ENDCHAR
STARTCHAR less
ENCODING 60
SWIDTH 670 0
DWIDTH 7 0
BBX 7 9 0 0
BITMAP
0004
0068
1664
5664
5980
5594
1664
0164
0004
ENDCHAR
STARTCHAR equal
ENCODING 61
SWIDTH 473 0
DWIDTH 5 0
BBX 5 6 0 1
BITMAP
5540
5540
5540
5540
5540
5540
ENDCHAR
STARTCHAR greater
ENCODING 62
SWIDTH 670 0
DWIDTH 7 0
BBX 7 9 0 0
BITMAP
4000
6500
6650
5958
0564
5998
5994
6500
5000
ENDCHAR
STARTCHAR question
ENCODING 63
SWIDTH 693 0
DWIDTH 8 0
BBX 8 10 0 0
BITMAP
0100
6A90
1568
0559
1559
1994
1A90
1400
2900
2900
ENDCHAR
STARTCHAR at
ENCODING 64
SWIDTH 1076 0
DWIDTH 12 0
BBX 12 11 0 -1
BITMAP
005500
065590
165594
696564
556955
559655
559655
5566A5
255554
0A6800
015400
ENDCHAR
STARTCHAR A
ENCODING 65
SWIDTH 936 0
DWIDTH 10 0
BBX 10 9 0 0
BITMAP
019400
015800
065500
056A00
0A5640
155940
1AA680
65A950
5902A0
ENDCHAR
STARTCHAR B
ENCODING 66
SWIDTH 862 0
DWIDTH 9 0
BBX 9 9 0 0
BITMAP
5A9500
5AA940
595680
595580
595940
595680
595680
5AA940
5AA900
ENDCHAR
STARTCHAR C
ENCODING 67
SWIDTH 852 0
DWIDTH 9 0
BBX 9 11 0 -1
BITMAP
005000
06A900
1A5940
695500
590000
680000
590000
695500
165640
065900
005000
ENDCHAR
STARTCHAR D
ENCODING 68
SWIDTH 886 0
DWIDTH 10 0
BBX 10 9 0 0
BITMAP
5A9500
5AA640
595A80
590590
590550
590590
595A80
5AAA40
6AA500
ENDCHAR
STARTCHAR E
ENCODING 69
SWIDTH 706 0
DWIDTH 8 0
BBX 8 9 0 0
BITMAP
5AA8
5AA9
5900
5A40
5A40
5A40
5900
5AA9
5AA9
ENDCHAR
STARTCHAR F
ENCODING 70
SWIDTH 683 0
DWIDTH 8 0
BBX 7 9 0 0
BITMAP
5AA8
5AA8
5900
5900
5AA8
5AA4
5900
5900
5900
ENDCHAR
STARTCHAR G
ENCODING 71
SWIDTH 908 0
DWIDTH 10 0
BBX 10 11 0 -1
BITMAP
005000
06A900
1A5940
695500
590000
680150
590650
555A50
155A50
065A50
005400
ENDCHAR
STARTCHAR H
ENCODING 72
SWIDTH 901 0
DWIDTH 10 0
BBX 10 9 0 0
BITMAP
590550
590550
590550
5A5950
5A5950
5A5950
590550
590550
590550
ENDCHAR
STARTCHAR I
ENCODING 73
SWIDTH 338 0
DWIDTH 4 0
BBX 4 9 0 0
BITMAP
59
59
59
59
59
59
59
59
59
ENDCHAR
STARTCHAR J
ENCODING 74
SWIDTH 434 0
DWIDTH 5 0
BBX 5 10 0 -1
BITMAP
1540
1540
1540
1540
1540
1540
5640
5A00
6900
5000
ENDCHAR
STARTCHAR K
ENCODING 75
SWIDTH 815 0
DWIDTH 9 0
BBX 9 9 0 0
BITMAP
591540
592A00
595500
59A800
5A5400
59A800
595500
592A00
591540
ENDCHAR
STARTCHAR L
ENCODING 76
SWIDTH 604 0
DWIDTH 7 0
BBX 7 9 0 0
BITMAP
5900
5900
5900
5900
5900
5900
5900
5AA0
5AA4
ENDCHAR
STARTCHAR M
ENCODING 77
SWIDTH 920 0
DWIDTH 10 0
BBX 10 9 0 0
BITMAP
540160
550650
5A0690
555550
5A9A50
5A6650
595650
590250
590250
ENDCHAR
STARTCHAR N
ENCODING 78
SWIDTH 877 0
DWIDTH 10 0
BBX 9 9 0 0
BITMAP
550580
554580
5A8580
5A5580
566580
59A980
595580
591A40
591580
ENDCHAR
STARTCHAR O
ENCODING 79
SWIDTH 933 0
DWIDTH 10 0
BBX 10 11 0 -1
BITMAP
005000
06A900
1A5A80
695690
590290
6801A0
590290
695690
165A80
065900
005400
ENDCHAR
STARTCHAR P
ENCODING 80
SWIDTH 850 0
DWIDTH 9 0
BBX 9 9 0 0
BITMAP
5A9500
5AA940
595A40
590680
5AAA40
59A640
595500
590000
590000
ENDCHAR
STARTCHAR Q
ENCODING 81
SWIDTH 937 0
DWIDTH 10 0
BBX 10 11 0 -1
BITMAP
005000
06A900
1A5A80
695690
590290
6801A0
591690
696A90
165A80
065A40
005540
ENDCHAR
STARTCHAR R
ENCODING 82
SWIDTH 843 0
DWIDTH 9 0
BBX 9 9 0 0
BITMAP
5A9500
5AA940
595A40
595680
5AA640
595600
596900
591A00
591640
ENDCHAR
STARTCHAR S
ENCODING 83
SWIDTH 682 0
DWIDTH 8 0
BBX 7 11 0 -1
BITMAP
0140
1AA4
5564
5940
5950
5A94
1568
0558
1568
59A4
0540
ENDCHAR
STARTCHAR T
ENCODING 84
SWIDTH 591 0
DWIDTH 7 0
BBX 6 9 0 0
BITMAP
6AA0
6AA0
0940
0940
0940
0940
0940
0940
0940
ENDCHAR
STARTCHAR U
ENCODING 85
SWIDTH 905 0
DWIDTH 10 0
BBX 10 10 0 -1
BITMAP
580550
580650
580650
580650
580650
550550
655590
255540
065900
005000
ENDCHAR
STARTCHAR V
ENCODING 86
SWIDTH 940 0
DWIDTH 10 0
BBX 10 9 0 0
BITMAP
550190
650650
1A0590
154A40
0A5540
056A00
066500
015900
01A400
ENDCHAR
STARTCHAR W
ENCODING 87
SWIDTH 1161 0
DWIDTH 13 0
BBX 13 9 0 0
BITMAP
58261540
55561640
255A5A00
19A9A500
169A9500
15599800
09A5A400
06929400
0A525400
ENDCHAR
STARTCHAR X
ENCODING 88
SWIDTH 876 0
DWIDTH 10 0
BBX 10 9 0 0
BITMAP
551540
2A5540
195500
05A800
025800
065500
0A9A00
155540
690A90
ENDCHAR
STARTCHAR Y
ENCODING 89
SWIDTH 789 0
DWIDTH 9 0
BBX 9 9 0 0
BITMAP
581540
251900
165500
196400
065400
06A000
029000
029000
029000
ENDCHAR
STARTCHAR Z
ENCODING 90
SWIDTH 854 0
DWIDTH 9 0
BBX 9 9 0 0
BITMAP
6AA980
6A9640
555A40
015A40
069500
569000
655540
65AA80
6AAA80
ENDCHAR
STARTCHAR bracketleft
ENCODING 91
SWIDTH 320 0
DWIDTH 4 0
BBX 3 11 0 -1
BITMAP
14
58
58
54
54
54
54
54
54
68
54
ENDCHAR
STARTCHAR backslash
ENCODING 92
SWIDTH 448 0
DWIDTH 5 0
BBX 5 10 0 -1
BITMAP
5400
5400
6400
2800
1500
1500
1900
0A00
0540
0540
ENDCHAR
STARTCHAR bracketright
ENCODING 93
SWIDTH 319 0
DWIDTH 4 0
BBX 3 11 0 -1
BITMAP
54
68
58
28
28
28
28
28
28
68
58
ENDCHAR
STARTCHAR asciicircum
ENCODING 94
SWIDTH 475 0
DWIDTH 5 0
BBX 5 5 0 3
BITMAP
0500
1500
1600
6140
5140
ENDCHAR
STARTCHAR underscore
ENCODING 95
SWIDTH 511 0
DWIDTH 6 0
BBX 5 2 0 -2
BITMAP
6A80
6A80
ENDCHAR
STARTCHAR grave
ENCODING 96
SWIDTH 472 0
DWIDTH 5 0
BBX 5 3 0 8
BITMAP
1000
6500
0640
ENDCHAR
STARTCHAR a
ENCODING 97
SWIDTH 832 0
DWIDTH 9 0
BBX 9 8 0 0
BITMAP
059400
16A500
566540
591940
680A40
555A40
295A40
069A40
ENDCHAR
STARTCHAR b
ENCODING 98
SWIDTH 720 0
DWIDTH 8 0
BBX 8 8 0 0
BITMAP
5554
6A91
5965
5AA5
5AA1
5415
5AA5
5554
ENDCHAR
STARTCHAR c
ENCODING 99
SWIDTH 736 0
DWIDTH 8 0
BBX 8 9 0 -1
BITMAP
06A4
1669
5954
5900
6800
5954
2959
0669
0150
ENDCHAR
STARTCHAR d
ENCODING 100
SWIDTH 833 0
DWIDTH 9 0
BBX 9 8 0 0
BITMAP
555400
6A9500
5AA540
591940
590A40
595540
5AA600
6AA400
ENDCHAR
STARTCHAR e
ENCODING 101
SWIDTH 666 0
DWIDTH 7 0
BBX 7 8 0 0
BITMAP
5554
5AA8
5954
5A54
5AA4
5900
5AA4
5AA8
ENDCHAR
STARTCHAR f
ENCODING 102
SWIDTH 625 0
DWIDTH 7 0
BBX 7 8 0 0
BITMAP
5554
5AA4
5950
5A50
5A50
5950
5900
5900
ENDCHAR
STARTCHAR g
ENCODING 103
SWIDTH 827 0
DWIDTH 9 0
BBX 9 9 0 -1
BITMAP
06A400
166900
595400
590000
680940
595940
295940
066940
015000
ENDCHAR
STARTCHAR h
ENCODING 104
SWIDTH 830 0
DWIDTH 9 0
BBX 9 8 0 0
BITMAP
540540
590940
590940
5AA940
5AA940
590940
590940
590940
ENDCHAR
STARTCHAR i
ENCODING 105
SWIDTH 337 0
DWIDTH 4 0
BBX 4 8 0 0
BITMAP
54
59
59
59
59
59
59
59
ENDCHAR
STARTCHAR j
ENCODING 106
SWIDTH 393 0
DWIDTH 4 0
BBX 4 9 0 -1
BITMAP
15
19
19
19
19
19
69
69
64
ENDCHAR
STARTCHAR k
ENCODING 107
SWIDTH 801 0
DWIDTH 9 0
BBX 9 8 0 0
BITMAP
541540
592900
595500
58A400
585400
596900
596500
591640
ENDCHAR
STARTCHAR l
ENCODING 108
SWIDTH 583 0
DWIDTH 6 0
BBX 6 8 0 0
BITMAP
5400
5900
5900
5900
5900
5900
5AA0
5AA0
ENDCHAR
STARTCHAR m
ENCODING 109
SWIDTH 1167 0
DWIDTH 13 0
BBX 13 8 0 0
BITMAP
16AAA400
196A6500
59665540
58291540
58291540
58291540
58291540
58291540
ENDCHAR
STARTCHAR n
ENCODING 110
SWIDTH 787 0
DWIDTH 9 0
BBX 8 8 0 0
BITMAP
5505
5646
5A86
5956
56A6
5556
546A
546A
ENDCHAR
STARTCHAR o
ENCODING 111
SWIDTH 833 0
DWIDTH 9 0
BBX 9 9 0 -1
BITMAP
06A400
166600
595940
590A40
680A40
595940
295A00
066500
015000
ENDCHAR
STARTCHAR p
ENCODING 112
SWIDTH 781 0
DWIDTH 9 0
BBX 9 8 0 0
BITMAP
555400
6AA500
5AA600
595640
595A00
596900
595000
590000
ENDCHAR
STARTCHAR q
ENCODING 113
SWIDTH 788 0
DWIDTH 9 0
BBX 8 9 0 -1
BITMAP
0555
15AA
56A6
5816
5956
6956
1A56
0156
0016
ENDCHAR
STARTCHAR r
ENCODING 114
SWIDTH 831 0
DWIDTH 9 0
BBX 9 8 0 0
BITMAP
555400
6AA540
5AAA40
595A40
595540
5AAA00
596900
592900
ENDCHAR
STARTCHAR s
ENCODING 115
SWIDTH 683 0
DWIDTH 8 0
BBX 7 8 0 0
BITMAP
1654
5AA4
5410
5950
1A98
0018
1968
5A94
ENDCHAR
STARTCHAR t
ENCODING 116
SWIDTH 588 0
DWIDTH 6 0
BBX 6 8 0 0
BITMAP
5550
6AA0
1950
0940
0940
0940
0940
0940
ENDCHAR
STARTCHAR u
ENCODING 117
SWIDTH 795 0
DWIDTH 9 0
BBX 9 9 0 -1
BITMAP
541540
581640
581640
581640
581640
555600
195500
166400
015000
ENDCHAR
STARTCHAR v
ENCODING 118
SWIDTH 855 0
DWIDTH 9 0
BBX 9 8 0 0
BITMAP
550540
551940
2A1540
156A00
0A5500
055800
059400
025400
ENDCHAR
STARTCHAR w
ENCODING 119
SWIDTH 1129 0
DWIDTH 12 0
BBX 12 9 0 -1
BITMAP
541515
58251A
58251A
58251A
58251A
59565A
296A65
1AAAA4
000040
ENDCHAR
STARTCHAR x
ENCODING 120
SWIDTH 790 0
DWIDTH 9 0
BBX 9 8 0 0
BITMAP
551540
2A9500
19A800
06A400
066400
1A9800
1A9900
696A40
ENDCHAR
STARTCHAR y
ENCODING 121
SWIDTH 733 0
DWIDTH 8 0
BBX 8 8 0 0
BITMAP
5415
6555
1964
1954
0690
0650
0650
0650
ENDCHAR
STARTCHAR z
ENCODING 122
SWIDTH 714 0
DWIDTH 8 0
BBX 8 8 0 0
BITMAP
5554
6AA8
1654
0650
0990
1540
6A69
5AA9
ENDCHAR
STARTCHAR braceleft
ENCODING 123
SWIDTH 396 0
DWIDTH 4 0
BBX 4 13 0 -3
BITMAP
01
1A
29
28
28
54
64
64
28
28
29
19
01
ENDCHAR
STARTCHAR bar
ENCODING 124
SWIDTH 266 0
DWIDTH 3 0
BBX 3 10 0 -1
BITMAP
54
54
54
54
54
54
54
54
54
54
ENDCHAR
STARTCHAR braceright
ENCODING 125
SWIDTH 396 0
DWIDTH 4 0
BBX 4 13 0 -3
BITMAP
50
64
59
15
15
15
1A
15
15
15
59
64
50
ENDCHAR
STARTCHAR asciitilde
ENCODING 126
SWIDTH 665 0
DWIDTH 7 0
BBX 7 2 0 6
BITMAP
6AA4
5554
ENDCHAR
STARTCHAR uni00A0
ENCODING 160
SWIDTH 108 0
DWIDTH 1 0
BBX 1 1 0 0
BITMAP
00
ENDCHAR
STARTCHAR exclamdown
ENCODING 161
SWIDTH 336 0
DWIDTH 4 0
BBX 4 10 0 -1
BITMAP
59
59
59
59
59
59
54
54
54
54
ENDCHAR
STARTCHAR cent
ENCODING 162
SWIDTH 708 0
DWIDTH 8 0
BBX 7 11 0 -1
BITMAP
0140
0150
1968
2994
5950
5800
5950
2954
1964
0050
0140
ENDCHAR
STARTCHAR sterling
ENCODING 163
SWIDTH 689 0
DWIDTH 8 0
BBX 7 10 0 0
BITMAP
0140
1AA4
6964
5950
5950
59A0
5950
5800
5AA0
5AA0
ENDCHAR
STARTCHAR currency
ENCODING 164
SWIDTH 715 0
DWIDTH 8 0
BBX 8 8 0 0
BITMAP
1414
6A68
1554
1414
1414
1554
6969
1414
ENDCHAR
STARTCHAR yen
ENCODING 165
SWIDTH 796 0
DWIDTH 9 0
BBX 9 9 0 0
BITMAP
581540
251A00
165500
096800
069400
06A000
169500
169500
029000
ENDCHAR
STARTCHAR brokenbar
ENCODING 166
SWIDTH 263 0
DWIDTH 3 0
BBX 3 10 0 -1
BITMAP
54
54
54
54
00
00
54
54
54
54
ENDCHAR
STARTCHAR section
ENCODING 167
SWIDTH 108 0
DWIDTH 1 0
BBX 1 1 0 0
BITMAP
00
ENDCHAR
STARTCHAR dieresis
ENCODING 168
SWIDTH 556 0
DWIDTH 6 0
BBX 6 2 0 8
BITMAP
0040
5550
ENDCHAR
STARTCHAR copyright
ENCODING 169
SWIDTH 869 0
DWIDTH 10 0
BBX 10 10 0 0
BITMAP
005000
0A5900
21A540
590480
880040
880050
580080
22A540
190600
01A400
ENDCHAR
STARTCHAR ordfeminine
ENCODING 170
SWIDTH 833 0
DWIDTH 9 0
BBX 9 8 0 0
BITMAP
059400
16A500
566540
591A40
580A40
555A40
2A5A40
069A40
ENDCHAR
STARTCHAR guillemotleft
ENCODING 171
SWIDTH 911 0
DWIDTH 10 0
BBX 10 6 0 1
BITMAP
014050
164590
595650
555550
164590
014050
ENDCHAR
STARTCHAR logicalnot
ENCODING 172
SWIDTH 718 0
DWIDTH 8 0
BBX 8 4 0 2
BITMAP
5565
6AA5
0015
0015
ENDCHAR
STARTCHAR registered
ENCODING 174
SWIDTH 869 0
DWIDTH 10 0
BBX 10 10 0 0
BITMAP
005000
0A5900
215140
525880
820840
82A450
522080
210540
190600
01A400
ENDCHAR
STARTCHAR degree
ENCODING 176
SWIDTH 330 0
DWIDTH 4 0
BBX 3 4 0 8
BITMAP
14
54
54
14
ENDCHAR
STARTCHAR plusminus
ENCODING 177
SWIDTH 598 0
DWIDTH 7 0
BBX 6 7 0 0
BITMAP
0A40
5A90
5A90
5A90
0A40
1550
1550
ENDCHAR
STARTCHAR uni00B2
ENCODING 178
SWIDTH 435 0
DWIDTH 5 0
BBX 5 7 0 2
BITMAP
5500
1540
0600
0900
1400
5400
6A00
ENDCHAR
STARTCHAR uni00B3
ENCODING 179
SWIDTH 515 0
DWIDTH 6 0
BBX 6 8 0 1
BITMAP
5500
6940
0280
1A40
1A90
1550
1580
5500
ENDCHAR
STARTCHAR acute
ENCODING 180
SWIDTH 472 0
DWIDTH 5 0
BBX 5 3 0 8
BITMAP
0100
1640
6400
ENDCHAR
STARTCHAR uni00B5
ENCODING 181
SWIDTH 802 0
DWIDTH 9 0
BBX 9 9 0 -1
BITMAP
541540
591540
591540
591540
591540
595640
595900
596400
595000
ENDCHAR
STARTCHAR paragraph
ENCODING 182
SWIDTH 676 0
DWIDTH 7 0
BBX 7 9 0 -1
BITMAP
0558
26A8
5A68
5968
5568
1968
0168
0068
0068
ENDCHAR
STARTCHAR periodcentered
ENCODING 183
SWIDTH 260 0
DWIDTH 3 0
BBX 3 3 0 4
BITMAP
10
64
50
ENDCHAR
STARTCHAR cedilla
ENCODING 184
SWIDTH 321 0
DWIDTH 4 0
BBX 3 4 0 -4
BITMAP
04
68
50
68
ENDCHAR
STARTCHAR uni00B9
ENCODING 185
SWIDTH 359 0
DWIDTH 4 0
BBX 4 6 0 3
BITMAP
69
69
15
15
15
15
ENDCHAR
STARTCHAR ordmasculine
ENCODING 186
SWIDTH 835 0
DWIDTH 9 0
BBX 9 9 0 -1
BITMAP
06A400
166600
695940
590A40
580A40
555940
155A00
066500
015000
ENDCHAR
STARTCHAR guillemotright
ENCODING 187
SWIDTH 912 0
DWIDTH 10 0
BBX 10 6 0 1
BITMAP
501400
591940
595650
555550
651940
501400
ENDCHAR
STARTCHAR onequarter
ENCODING 188
SWIDTH 1236 0
DWIDTH 14 0
BBX 14 10 0 -1
BITMAP
69060000
69090000
15151900
15151500
15286900
15245540
00546A90
00545540
00A00140
00900000
ENDCHAR
STARTCHAR onehalf
ENCODING 189
SWIDTH 1154 0
DWIDTH 13 0
BBX 13 10 0 -1
BITMAP
69060000
69090000
15156900
15151640
15280600
15240900
00541400
00546500
00A06A00
00900000
ENDCHAR
STARTCHAR threequarters
ENCODING 190
SWIDTH 1345 0
DWIDTH 15 0
BBX 15 10 0 -1
BITMAP
55015000
69415000
02818280
1A424540
1A854A50
15955560
15861AA4
55091554
00150060
00150000
ENDCHAR
STARTCHAR questiondown
ENCODING 191
SWIDTH 693 0
DWIDTH 8 0
BBX 8 10 0 0
BITMAP
0100
6A90
1568
0559
1559
1994
1A90
1400
2900
2900
ENDCHAR
STARTCHAR Agrave
ENCODING 192
SWIDTH 936 0
DWIDTH 10 0
BBX 10 13 0 0
BITMAP
040000
054000
015000
000000
019400
015800
065500
056A00
0A5640
155940
1AA680
65A950
5902A0
ENDCHAR
STARTCHAR Aacute
ENCODING 193
SWIDTH 936 0
DWIDTH 10 0
BBX 10 13 0 0
BITMAP
000100
001640
006400
000000
019400
015800
065500
056A00
0A5640
155940
1AA680
65A950
5902A0
ENDCHAR
STARTCHAR Acircumflex
ENCODING 194
SWIDTH 936 0
DWIDTH 10 0
BBX 10 13 0 0
BITMAP
009000
006400
015400
000000
019400
015800
065500
056A00
0A5640
155940
1AA680
65A950
5902A0
ENDCHAR
STARTCHAR Atilde
ENCODING 195
SWIDTH 936 0
DWIDTH 10 0
BBX 10 12 0 0
BITMAP
06A540
055500
000000
019400
015800
065500
056A00
0A5640
155940
1AA680
65A950
5902A0
ENDCHAR
STARTCHAR Adieresis
ENCODING 196
SWIDTH 936 0
DWIDTH 10 0
BBX 10 12 0 0
BITMAP
000400
054900
000000
019400
015800
065500
056A00
0A5640
155940
1AA680
65A950
5902A0
ENDCHAR
STARTCHAR Aring
ENCODING 197
SWIDTH 936 0
DWIDTH 10 0
BBX 10 13 0 0
BITMAP
005000
005400
015400
005000
019400
015800
065500
056A00
0A5640
155940
1AA680
65A950
5902A0
ENDCHAR
STARTCHAR AE
ENCODING 198
SWIDTH 1198 0
DWIDTH 13 0
BBX 13 9 0 0
BITMAP
019AAA40
016AAA40
06550000
056A5500
0A569500
15599500
1AA68000
65A96A40
5902AA40
ENDCHAR
STARTCHAR Ccedilla
ENCODING 199
SWIDTH 852 0
DWIDTH 9 0
BBX 9 14 0 -4
BITMAP
005000
06A900
1A5940
695500
590000
680000
590000
695500
165640
065900
006000
019000
014000
019000
ENDCHAR
STARTCHAR Egrave
ENCODING 200
SWIDTH 706 0
DWIDTH 8 0
BBX 8 13 0 0
BITMAP
1000
6500
0640
0000
5AA8
5AA9
5900
5A40
5A40
5A40
5900
5AA9
5AA9
ENDCHAR
STARTCHAR Eacute
ENCODING 201
SWIDTH 706 0
DWIDTH 8 0
BBX 8 13 0 0
BITMAP
0004
0054
0150
0000
5AA8
5AA9
5900
5A40
5A40
5A40
5900
5AA9
5AA9
ENDCHAR
STARTCHAR Ecircumflex
ENCODING 202
SWIDTH 706 0
DWIDTH 8 0
BBX 8 13 0 0
BITMAP
0240
0580
0550
0000
5AA8
5AA9
5900
5A40
5A40
5A40
5900
5AA9
5AA9
ENDCHAR
STARTCHAR Edieresis
ENCODING 203
SWIDTH 706 0
DWIDTH 8 0
BBX 8 12 0 0
BITMAP
0400
1554
0000
5AA8
5AA9
5900
5A40
5A40
5A40
5900
5AA9
5AA9
ENDCHAR
STARTCHAR Igrave
ENCODING 204
SWIDTH 338 0
DWIDTH 4 0
BBX 6 13 -2 0
BITMAP
1000
6500
0640
0000
0590
0590
0590
0590
0590
0590
0590
0590
0590
ENDCHAR
STARTCHAR Iacute
ENCODING 205
SWIDTH 338 0
DWIDTH 4 0
BBX 5 13 0 0
BITMAP
0040
0540
1500
0000
5900
5900
5900
5900
5900
5900
5900
5900
5900
ENDCHAR
STARTCHAR Icircumflex
ENCODING 206
SWIDTH 338 0
DWIDTH 4 0
BBX 4 13 0 0
BITMAP
24
58
55
00
59
59
59
59
59
59
59
59
59
ENDCHAR
STARTCHAR Idieresis
ENCODING 207
SWIDTH 338 0
DWIDTH 4 0
BBX 6 12 -1 0
BITMAP
1000
6150
0000
1640
1640
1640
1640
1640
1640
1640
1640
1640
ENDCHAR
STARTCHAR Eth
ENCODING 208
SWIDTH 905 0
DWIDTH 10 0
BBX 10 9 0 0
BITMAP
5A9500
6AAA40
555980
6A0550
550650
6A0550
555980
56AA40
6AA500
ENDCHAR
STARTCHAR Ntilde
ENCODING 209
SWIDTH 877 0
DWIDTH 10 0
BBX 9 12 0 0
BITMAP
0AA600
155500
000000
550580
554580
5A8580
5A5580
566580
59A980
595580
591A40
591580
ENDCHAR
STARTCHAR Ograve
ENCODING 210
SWIDTH 933 0
DWIDTH 10 0
BBX 10 14 0 -1
BITMAP
040000
054000
015000
005000
06A900
1A5A80
695690
590290
6801A0
590290
695690
165A80
065900
005400
ENDCHAR
STARTCHAR Oacute
ENCODING 211
SWIDTH 933 0
DWIDTH 10 0
BBX 10 14 0 -1
BITMAP
000100
001640
006400
005000
06A900
1A5A80
695690
590290
6801A0
590290
695690
165A80
065900
005400
ENDCHAR
STARTCHAR Ocircumflex
ENCODING 212
SWIDTH 933 0
DWIDTH 10 0
BBX 10 14 0 -1
BITMAP
009000
006400
015400
005000
06A900
1A5A80
695690
590290
6801A0
590290
695690
165A80
065900
005400
ENDCHAR
STARTCHAR Otilde
ENCODING 213
SWIDTH 933 0
DWIDTH 10 0
BBX 10 13 0 -1
BITMAP
06A540
055500
005000
06A900
1A5A80
695690
590290
6801A0
590290
695690
165A80
065900
005400
ENDCHAR
STARTCHAR Odieresis
ENCODING 214
SWIDTH 933 0
DWIDTH 10 0
BBX 10 13 0 -1
BITMAP
000400
054900
005000
06A900
1A5A80
695690
590290
6801A0
590290
695690
165A80
065900
005400
ENDCHAR
STARTCHAR multiply
ENCODING 215
SWIDTH 790 0
DWIDTH 9 0
BBX 9 8 0 0
BITMAP
551540
2A9500
19A800
06A400
066400
1A9800
1A9900
696A40
ENDCHAR
STARTCHAR Oslash
ENCODING 216
SWIDTH 938 0
DWIDTH 10 0
BBX 10 13 0 -2
BITMAP
000100
005640
06AA40
1A5A80
695690
590290
6801A0
590190
695590
165A80
065A00
155400
040000
ENDCHAR
STARTCHAR Ugrave
ENCODING 217
SWIDTH 905 0
DWIDTH 10 0
BBX 10 14 0 -1
BITMAP
040000
194000
019000
000000
580550
580650
580650
580650
580650
550550
655590
255540
065900
005000
ENDCHAR
STARTCHAR Uacute
ENCODING 218
SWIDTH 905 0
DWIDTH 10 0
BBX 10 14 0 -1
BITMAP
000100
001600
005400
000000
580550
580650
580650
580650
580650
550550
655590
255540
065900
005000
ENDCHAR
STARTCHAR Ucircumflex
ENCODING 219
SWIDTH 905 0
DWIDTH 10 0
BBX 10 14 0 -1
BITMAP
009000
016000
015400
000000
580550
580650
580650
580650
580650
550550
655590
255540
065900
005000
ENDCHAR
STARTCHAR Udieresis
ENCODING 220
SWIDTH 905 0
DWIDTH 10 0
BBX 10 12 0 -1
BITMAP
055500
000000
580550
580650
580650
580650
580650
550550
655590
255540
065900
005000
ENDCHAR
STARTCHAR Yacute
ENCODING 221
SWIDTH 789 0
DWIDTH 9 0
BBX 9 13 0 0
BITMAP
000400
005900
019000
000000
581540
251900
165500
196400
065400
06A000
029000
029000
029000
ENDCHAR
STARTCHAR Thorn
ENCODING 222
SWIDTH 798 0
DWIDTH 9 0
BBX 9 10 0 -1
BITMAP
594000
5A6400
5A5900
5A5640
591540
595640
595900
596400
595000
550000
ENDCHAR
STARTCHAR germandbls
ENCODING 223
SWIDTH 826 0
DWIDTH 9 0
BBX 9 11 0 -1
BITMAP
015000
1AA900
555540
555940
595540
5AAA40
595A40
595940
5AA940
5AA500
540000
ENDCHAR
STARTCHAR agrave
ENCODING 224
SWIDTH 832 0
DWIDTH 9 0
BBX 9 11 0 0
BITMAP
190000
058000
000000
059400
16A500
566540
591940
680A40
555A40
295A40
069A40
ENDCHAR
STARTCHAR aacute
ENCODING 225
SWIDTH 832 0
DWIDTH 9 0
BBX 9 11 0 0
BITMAP
001900
009400
000000
059400
16A500
566540
591940
680A40
555A40
295A40
069A40
ENDCHAR
STARTCHAR acircumflex
ENCODING 226
SWIDTH 832 0
DWIDTH 9 0
BBX 9 11 0 0
BITMAP
019000
015000
015000
059400
16A500
566540
591940
680A40
555A40
295A40
069A40
ENDCHAR
STARTCHAR atilde
ENCODING 227
SWIDTH 832 0
DWIDTH 9 0
BBX 9 10 0 0
BITMAP
1AA500
155500
059400
16A500
566540
591940
680A40
555A40
295A40
069A40
ENDCHAR
STARTCHAR adieresis
ENCODING 228
SWIDTH 832 0
DWIDTH 9 0
BBX 9 11 0 0
BITMAP
040400
091800
000000
059400
16A500
566540
591940
680A40
555A40
295A40
069A40
ENDCHAR
STARTCHAR aring
ENCODING 229
SWIDTH 832 0
DWIDTH 9 0
BBX 9 12 0 0
BITMAP
004000
015000
026000
004000
059400
16A500
566540
591940
680A40
555A40
295A40
069A40
ENDCHAR
STARTCHAR ae
ENCODING 230
SWIDTH 1166 0
DWIDTH 13 0
BBX 13 8 0 0
BITMAP
05955500
16A6AA40
56659500
59199500
680AAA00
555A4000
295AAA40
069AAA40
ENDCHAR
STARTCHAR ccedilla
ENCODING 231
SWIDTH 736 0
DWIDTH 8 0
BBX 8 12 0 -4
BITMAP
06A4
1669
5954
5900
6800
5954
2959
0669
0190
0280
0500
0280
ENDCHAR
STARTCHAR egrave
ENCODING 232
SWIDTH 666 0
DWIDTH 7 0
BBX 7 12 0 0
BITMAP
1000
6500
0640
0000
5554
5AA8
5954
5A54
5AA4
5900
5AA4
5AA8
ENDCHAR
STARTCHAR eacute
ENCODING 233
SWIDTH 666 0
DWIDTH 7 0
BBX 7 12 0 0
BITMAP
0004
0064
0150
0000
5554
5AA8
5954
5A54
5AA4
5900
5AA4
5AA8
ENDCHAR
STARTCHAR ecircumflex
ENCODING 234
SWIDTH 666 0
DWIDTH 7 0
BBX 7 11 0 0
BITMAP
0240
0580
0540
5554
5AA8
5954
5A54
5AA4
5900
5AA4
5AA8
ENDCHAR
STARTCHAR edieresis
ENCODING 235
SWIDTH 666 0
DWIDTH 7 0
BBX 7 11 0 0
BITMAP
1400
1854
0000
5554
5AA8
5954
5A54
5AA4
5900
5AA4
5AA8
ENDCHAR
STARTCHAR igrave
ENCODING 236
SWIDTH 337 0
DWIDTH 4 0
BBX 6 12 -2 0
BITMAP
1000
6500
0640
0000
0540
0590
0590
0590
0590
0590
0590
0590
ENDCHAR
STARTCHAR iacute
ENCODING 237
SWIDTH 337 0
DWIDTH 4 0
BBX 5 12 0 0
BITMAP
0040
0540
1500
0000
5400
5900
5900
5900
5900
5900
5900
5900
ENDCHAR
STARTCHAR icircumflex
ENCODING 238
SWIDTH 337 0
DWIDTH 4 0
BBX 4 11 0 0
BITMAP
24
58
55
54
59
59
59
59
59
59
59
ENDCHAR
STARTCHAR idieresis
ENCODING 239
SWIDTH 337 0
DWIDTH 4 0
BBX 6 11 -1 0
BITMAP
1000
6150
0000
1500
1640
1640
1640
1640
1640
1640
1640
ENDCHAR
STARTCHAR eth
ENCODING 240
SWIDTH 783 0
DWIDTH 9 0
BBX 9 11 0 -1
BITMAP
014000
1AA400
196500
015A00
055640
255640
5A9640
695A00
555500
196400
014000
ENDCHAR
STARTCHAR ntilde
ENCODING 241
SWIDTH 787 0
DWIDTH 9 0
BBX 8 10 0 0
BITMAP
1AA5
1554
5505
5646
5A86
5956
56A6
5556
546A
546A
ENDCHAR
STARTCHAR ograve
ENCODING 242
SWIDTH 833 0
DWIDTH 9 0
BBX 9 12 0 -1
BITMAP
190000
058000
000000
06A400
166600
595940
590A40
680A40
595940
295A00
066500
015000
ENDCHAR
STARTCHAR oacute
ENCODING 243
SWIDTH 833 0
DWIDTH 9 0
BBX 9 12 0 -1
BITMAP
001900
009400
000000
06A400
166600
595940
590A40
680A40
595940
295A00
066500
015000
ENDCHAR
STARTCHAR ocircumflex
ENCODING 244
SWIDTH 833 0
DWIDTH 9 0
BBX 9 12 0 -1
BITMAP
019000
019000
015000
06A400
166600
595940
590A40
680A40
595940
295A00
066500
015000
ENDCHAR
STARTCHAR otilde
ENCODING 245
SWIDTH 833 0
DWIDTH 9 0
BBX 9 11 0 -1
BITMAP
1AA900
159500
06A400
166600
595940
590A40
680A40
595940
295A00
066500
015000
ENDCHAR
STARTCHAR odieresis
ENCODING 246
SWIDTH 833 0
DWIDTH 9 0
BBX 9 12 0 -1
BITMAP
040400
091800
000000
06A400
166600
595940
590A40
680A40
595940
295A00
066500
015000
ENDCHAR
STARTCHAR divide
ENCODING 247
SWIDTH 260 0
DWIDTH 3 0
BBX 3 7 0 0
BITMAP
54
54
54
54
10
54
54
ENDCHAR
STARTCHAR oslash
ENCODING 248
SWIDTH 832 0
DWIDTH 9 0
BBX 9 10 0 -1
BITMAP
000400
06A900
166600
655540
590A40
680A40
555940
295A00
166500
055000
ENDCHAR
STARTCHAR ugrave
ENCODING 249
SWIDTH 795 0
DWIDTH 9 0
BBX 9 13 0 -1
BITMAP
100000
190000
058000
000000
541540
581640
581640
581640
581640
555600
195500
166400
015000
ENDCHAR
STARTCHAR uacute
ENCODING 250
SWIDTH 795 0
DWIDTH 9 0
BBX 9 13 0 -1
BITMAP
000400
005900
019000
000000
541540
581640
581640
581640
581640
555600
195500
166400
015000
ENDCHAR
STARTCHAR ucircumflex
ENCODING 251
SWIDTH 795 0
DWIDTH 9 0
BBX 9 12 0 -1
BITMAP
018000
015000
015000
541540
581640
581640
581640
581640
555600
195500
166400
015000
ENDCHAR
STARTCHAR udieresis
ENCODING 252
SWIDTH 795 0
DWIDTH 9 0
BBX 9 12 0 -1
BITMAP
041400
151800
000000
541540
581640
581640
581640
581640
555600
195500
166400
015000
ENDCHAR
STARTCHAR yacute
ENCODING 253
SWIDTH 733 0
DWIDTH 8 0
BBX 8 12 0 0
BITMAP
0004
0059
0190
0000
5415
6555
1964
1954
0690
0650
0650
0650
ENDCHAR
STARTCHAR thorn
ENCODING 254
SWIDTH 833 0
DWIDTH 9 0
BBX 9 10 0 -1
BITMAP
590000
590000
585400
585600
58A940
585A40
58A540
585500
585400
590000
ENDCHAR
STARTCHAR ydieresis
ENCODING 255
SWIDTH 733 0
DWIDTH 8 0
BBX 8 10 0 0
BITMAP
1554
0000
5415
6555
1964
1954
0690
0650
0650
0650
ENDCHAR
STARTCHAR Amacron
ENCODING 256
SWIDTH 936 0
DWIDTH 10 0
BBX 10 9 0 0
BITMAP
019400
015800
065500
056A00
0A5640
155940
1AA680
65A950
5902A0
ENDCHAR
STARTCHAR amacron
ENCODING 257
SWIDTH 832 0
DWIDTH 9 0
BBX 9 8 0 0
BITMAP
059400
16A500
566540
591940
680A40
555A40
295A40
069A40
ENDCHAR
STARTCHAR Abreve
ENCODING 258
SWIDTH 936 0
DWIDTH 10 0
BBX 10 11 0 0
BITMAP
015400
005000
019400
015800
065500
056A00
0A5640
155940
1AA680
65A950
5902A0
ENDCHAR
STARTCHAR abreve
ENCODING 259
SWIDTH 832 0
DWIDTH 9 0
BBX 9 10 0 0
BITMAP
026000
004000
059400
16A500
566540
591940
680A40
555A40
295A40
069A40
ENDCHAR
STARTCHAR Aogonek
ENCODING 260
SWIDTH 937 0
DWIDTH 10 0
BBX 10 12 0 -3
BITMAP
015400
015900
066500
055A00
0A9540
154A40
16A590
29AA50
5541A0
014000
014000
019000
ENDCHAR
STARTCHAR aogonek
ENCODING 261
SWIDTH 832 0
DWIDTH 9 0
BBX 9 11 0 -3
BITMAP
059400
16A500
566540
591940
680A40
555A40
295A40
069A40
064000
054000
054000
ENDCHAR
STARTCHAR Cacute
ENCODING 262
SWIDTH 852 0
DWIDTH 9 0
BBX 9 14 0 -1
BITMAP
000100
001640
006400
005000
06A900
1A5940
695500
590000
680000
590000
695500
165640
065900
005000
ENDCHAR
STARTCHAR cacute
ENCODING 263
SWIDTH 736 0
DWIDTH 8 0
BBX 8 12 0 -1
BITMAP
0019
0094
0000
06A4
1669
5954
5900
6800
5954
2959
0669
0150
ENDCHAR
STARTCHAR Cdotaccent
ENCODING 266
SWIDTH 852 0
DWIDTH 9 0
BBX 9 13 0 -1
BITMAP
006000
00A000
005000
06A900
1A5940
695500
590000
680000
590000
695500
165640
065900
005000
ENDCHAR
STARTCHAR cdotaccent
ENCODING 267
SWIDTH 736 0
DWIDTH 8 0
BBX 8 12 0 -1
BITMAP
0190
0190
0000
06A4
1669
5954
5900
6800
5954
2959
0669
0150
ENDCHAR
STARTCHAR Ccaron
ENCODING 268
SWIDTH 852 0
DWIDTH 9 0
BBX 9 14 0 -1
BITMAP
015400
006400
005000
005000
06A900
1A5940
695500
590000
680000
590000
695500
165640
065900
005000
ENDCHAR
STARTCHAR ccaron
ENCODING 269
SWIDTH 736 0
DWIDTH 8 0
BBX 8 12 0 -1
BITMAP
0160
0150
0190
06A4
1669
5954
5900
6800
5954
2959
0669
0150
ENDCHAR
STARTCHAR Dcaron
ENCODING 270
SWIDTH 886 0
DWIDTH 10 0
BBX 10 13 0 0
BITMAP
015400
006000
005000
000000
5A9500
5AA640
595A80
590590
590550
590590
595A80
5AAA40
6AA500
ENDCHAR
STARTCHAR dcaron
ENCODING 271
SWIDTH 1084 0
DWIDTH 12 0
BBX 12 8 0 0
BITMAP
555415
6A9515
5AA545
591944
590A40
595540
5AA600
6AA400
ENDCHAR
STARTCHAR Dcroat
ENCODING 272
SWIDTH 888 0
DWIDTH 10 0
BBX 11 9 -1 0
BITMAP
16A540
16A990
1656A0
561164
561154
565164
1656A0
16AA90
1AA940
ENDCHAR
STARTCHAR dcroat
ENCODING 273
SWIDTH 833 0
DWIDTH 9 0
BBX 10 8 -1 0
BITMAP
155500
1AA540
16A950
561650
665290
165550
16A980
1AA900
ENDCHAR
STARTCHAR Emacron
ENCODING 274
SWIDTH 706 0
DWIDTH 8 0
BBX 8 9 0 0
BITMAP
5AA8
5AA9
5900
5A40
5A40
5A40
5900
5AA9
5AA9
ENDCHAR
STARTCHAR emacron
ENCODING 275
SWIDTH 666 0
DWIDTH 7 0
BBX 7 8 0 0
BITMAP
5554
5AA8
5954
5A54
5AA4
5900
5AA4
5AA8
ENDCHAR
STARTCHAR Ebreve
ENCODING 276
SWIDTH 706 0
DWIDTH 8 0
BBX 8 11 0 0
BITMAP
0550
0140
5AA8
5AA9
5900
5A40
5A40
5A40
5900
5AA9
5AA9
ENDCHAR
STARTCHAR ebreve
ENCODING 277
SWIDTH 666 0
DWIDTH 7 0
BBX 7 10 0 0
BITMAP
0540
0140
5554
5AA8
5954
5A54
5AA4
5900
5AA4
5AA8
ENDCHAR
STARTCHAR Edotaccent
ENCODING 278
SWIDTH 706 0
DWIDTH 8 0
BBX 8 13 0 0
BITMAP
0100
0280
0140
0000
5AA8
5AA9
5900
5A40
5A40
5A40
5900
5AA9
5AA9
ENDCHAR
STARTCHAR edotaccent
ENCODING 279
SWIDTH 666 0
DWIDTH 7 0
BBX 7 11 0 0
BITMAP
0100
0240
0140
5554
5AA8
5954
5A54
5AA4
5900
5AA4
5AA8
ENDCHAR
STARTCHAR Eogonek
ENCODING 280
SWIDTH 706 0
DWIDTH 8 0
BBX 8 12 0 -3
BITMAP
5AA8
5AA9
5900
5A40
5A40
5A40
5900
5AA9
5AAD
0014
0014
0015
ENDCHAR
STARTCHAR eogonek
ENCODING 281
SWIDTH 666 0
DWIDTH 7 0
BBX 7 11 0 -3
BITMAP
5554
5AA8
5954
5A54
5AA4
5900
5AA4
5AAC
0024
0024
0028
ENDCHAR
STARTCHAR Ecaron
ENCODING 282
SWIDTH 706 0
DWIDTH 8 0
BBX 8 13 0 0
BITMAP
0550
0580
0140
0000
5AA8
5AA9
5900
5A40
5A40
5A40
5900
5AA9
5AA9
ENDCHAR
STARTCHAR ecaron
ENCODING 283
SWIDTH 666 0
DWIDTH 7 0
BBX 7 11 0 0
BITMAP
0580
0540
0140
5554
5AA8
5954
5A54
5AA4
5900
5AA4
5AA8
ENDCHAR
STARTCHAR Gbreve
ENCODING 286
SWIDTH 908 0
DWIDTH 10 0
BBX 10 12 0 -1
BITMAP
015400
006000
06A900
1A5940
695500
590000
680150
590650
555A50
155A50
065A50
005400
ENDCHAR
STARTCHAR gbreve
ENCODING 287
SWIDTH 827 0
DWIDTH 9 0
BBX 9 11 0 -1
BITMAP
026000
004000
06A400
166900
595400
590000
680940
595940
295940
066940
015000
ENDCHAR
STARTCHAR Gdotaccent
ENCODING 288
SWIDTH 908 0
DWIDTH 10 0
BBX 10 13 0 -1
BITMAP
006000
00A000
005000
06A900
1A5940
695500
590000
680150
590650
555A50
155A50
065A50
005400
ENDCHAR
STARTCHAR gdotaccent
ENCODING 289
SWIDTH 827 0
DWIDTH 9 0
BBX 9 12 0 -1
BITMAP
019000
019000
000000
06A400
166900
595400
590000
680940
595940
295940
066940
015000
ENDCHAR
STARTCHAR Gcommaaccent
ENCODING 290
SWIDTH 908 0
DWIDTH 10 0
BBX 10 15 0 -5
BITMAP
005000
06A900
1A5940
695500
590000
680150
590650
555A50
155A50
065A50
005400
006000
006000
006000
004000
ENDCHAR
STARTCHAR gcommaaccent
ENCODING 291
SWIDTH 827 0
DWIDTH 9 0
BBX 9 9 0 -1
BITMAP
06A400
166900
595400
590000
680940
595940
295940
066940
015000
ENDCHAR
STARTCHAR Hcircumflex
ENCODING 292
SWIDTH 901 0
DWIDTH 10 0
BBX 10 13 0 0
BITMAP
009000
016000
015400
000000
590550
590550
590550
5A5950
5A5950
5A5950
590550
590550
590550
ENDCHAR
STARTCHAR hcircumflex
ENCODING 293
SWIDTH 830 0
DWIDTH 9 0
BBX 9 11 0 0
BITMAP
019000
015000
015000
540540
590940
590940
5AA940
5AA940
590940
590940
590940
ENDCHAR
STARTCHAR Hbar
ENCODING 294
SWIDTH 901 0
DWIDTH 10 0
BBX 10 9 0 0
BITMAP
590550
585150
595560
5A5950
5A5950
5A5950
590550
590550
590550
ENDCHAR
STARTCHAR hbar
ENCODING 295
SWIDTH 830 0
DWIDTH 9 0
BBX 9 8 0 0
BITMAP
540540
584940
595940
5AA940
5AA940
590940
590940
590940
ENDCHAR
STARTCHAR Itilde
ENCODING 296
SWIDTH 338 0
DWIDTH 4 0
BBX 7 12 -2 0
BITMAP
2A98
5554
0000
0590
0590
0590
0590
0590
0590
0590
0590
0590
ENDCHAR
STARTCHAR itilde
ENCODING 297
SWIDTH 337 0
DWIDTH 4 0
BBX 7 10 -2 0
BITMAP
2A98
5554
0540
0590
0590
0590
0590
0590
0590
0590
ENDCHAR
STARTCHAR Imacron
ENCODING 298
SWIDTH 338 0
DWIDTH 4 0
BBX 4 9 0 0
BITMAP
59
59
59
59
59
59
59
59
59
ENDCHAR
STARTCHAR imacron
ENCODING 299
SWIDTH 337 0
DWIDTH 4 0
BBX 4 8 0 0
BITMAP
54
59
59
59
59
59
59
59
ENDCHAR
STARTCHAR Ibreve
ENCODING 300
SWIDTH 338 0
DWIDTH 4 0
BBX 4 11 0 0
BITMAP
55
14
59
59
59
59
59
59
59
59
59
ENDCHAR
STARTCHAR ibreve
ENCODING 301
SWIDTH 337 0
DWIDTH 4 0
BBX 4 10 0 0
BITMAP
55
14
54
59
59
59
59
59
59
59
ENDCHAR
STARTCHAR Iogonek
ENCODING 302
SWIDTH 338 0
DWIDTH 4 0
BBX 4 12 0 -3
BITMAP
59
59
59
59
59
59
59
59
5D
14
14
19
ENDCHAR
STARTCHAR iogonek
ENCODING 303
SWIDTH 337 0
DWIDTH 4 0
BBX 4 11 0 -3
BITMAP
54
59
59
59
59
59
59
5D
14
14
19
ENDCHAR
STARTCHAR Idotaccent
ENCODING 304
SWIDTH 338 0
DWIDTH 4 0
BBX 4 12 0 0
BITMAP
24
28
00
59
59
59
59
59
59
59
59
59
ENDCHAR
STARTCHAR dotlessi
ENCODING 305
SWIDTH 337 0
DWIDTH 4 0
BBX 4 8 0 0
BITMAP
54
59
59
59
59
59
59
59
ENDCHAR
STARTCHAR IJ
ENCODING 306
SWIDTH 774 0
DWIDTH 9 0
BBX 8 10 0 -1
BITMAP
5916
591A
591A
591A
591A
591A
595A
5959
5964
0050
ENDCHAR
STARTCHAR ij
ENCODING 307
SWIDTH 729 0
DWIDTH 8 0
BBX 8 9 0 -1
BITMAP
5415
5925
5925
5925
5925
5925
5955
5968
0090
ENDCHAR
STARTCHAR Jcircumflex
ENCODING 308
SWIDTH 434 0
DWIDTH 5 0
BBX 5 14 0 -1
BITMAP
0900
1600
1540
0000
1540
1540
1540
1540
1540
1540
5640
5A00
6900
5000
ENDCHAR
STARTCHAR jcircumflex
ENCODING 309
SWIDTH 393 0
DWIDTH 4 0
BBX 4 12 0 -1
BITMAP
15
19
15
15
19
19
19
19
19
69
69
64
ENDCHAR
STARTCHAR Kcommaaccent
ENCODING 310
SWIDTH 815 0
DWIDTH 9 0
BBX 9 13 0 -4
BITMAP
591540
592A00
595500
59A800
5A5400
59A800
595500
592A00
591540
000000
015000
005000
015000
ENDCHAR
STARTCHAR kcommaaccent
ENCODING 311
SWIDTH 801 0
DWIDTH 9 0
BBX 9 12 0 -4
BITMAP
541540
592900
595500
58A400
585400
596900
596500
591640
000000
015000
005000
015000
ENDCHAR
STARTCHAR kgreenlandic
ENCODING 312
SWIDTH 801 0
DWIDTH 9 0
BBX 9 8 0 0
BITMAP
541540
592900
595500
58A400
585400
596900
596500
591640
ENDCHAR
STARTCHAR Lacute
ENCODING 313
SWIDTH 604 0
DWIDTH 7 0
BBX 7 12 0 0
BITMAP
0064
0240
0000
5900
5900
5900
5900
5900
5900
5900
5AA0
5AA4
ENDCHAR
STARTCHAR lacute
ENCODING 314
SWIDTH 583 0
DWIDTH 6 0
BBX 6 12 0 0
BITMAP
0040
0540
1500
0000
5400
5900
5900
5900
5900
5900
5AA0
5AA0
ENDCHAR
STARTCHAR Lcommaaccent
ENCODING 315
SWIDTH 604 0
DWIDTH 7 0
BBX 7 13 0 -4
BITMAP
5900
5900
5900
5900
5900
5900
5900
5AA0
5AA4
0000
0540
0140
0600
ENDCHAR
STARTCHAR lcommaaccent
ENCODING 316
SWIDTH 583 0
DWIDTH 6 0
BBX 6 12 0 -4
BITMAP
5400
5900
5900
5900
5900
5900
5AA0
5AA0
0000
0640
0240
0600
ENDCHAR
STARTCHAR Lcaron
ENCODING 317
SWIDTH 856 0
DWIDTH 9 0
BBX 9 9 0 0
BITMAP
590180
590180
590180
590140
590000
590000
590000
5AA000
5AA400
ENDCHAR
STARTCHAR lcaron
ENCODING 318
SWIDTH 584 0
DWIDTH 6 0
BBX 6 8 0 0
BITMAP
54A0
5960
5950
5940
5900
5900
5AA0
5AA0
ENDCHAR
STARTCHAR Ldot
ENCODING 319
SWIDTH 604 0
DWIDTH 7 0
BBX 7 9 0 0
BITMAP
5900
5900
5900
5940
5990
5950
5900
5AA0
5AA4
ENDCHAR
STARTCHAR ldot
ENCODING 320
SWIDTH 582 0
DWIDTH 6 0
BBX 6 8 0 0
BITMAP
5400
5940
5990
5950
5900
5900
5AA0
5AA0
ENDCHAR
STARTCHAR Lslash
ENCODING 321
SWIDTH 604 0
DWIDTH 7 0
BBX 8 9 -1 0
BITMAP
1640
1640
1610
1600
5640
5640
1640
16A9
16A9
ENDCHAR
STARTCHAR lslash
ENCODING 322
SWIDTH 581 0
DWIDTH 6 0
BBX 7 8 -1 0
BITMAP
1500
1650
1620
5650
5640
5640
16A8
16A8
ENDCHAR
STARTCHAR Nacute
ENCODING 323
SWIDTH 877 0
DWIDTH 10 0
BBX 9 13 0 0
BITMAP
000100
001900
005400
000000
550580
554580
5A8580
5A5580
566580
59A980
595580
591A40
591580
ENDCHAR
STARTCHAR nacute
ENCODING 324
SWIDTH 787 0
DWIDTH 9 0
BBX 8 12 0 0
BITMAP
0004
0059
0190
0000
5505
5646
5A86
5956
56A6
5556
546A
546A
ENDCHAR
STARTCHAR Ncommaaccent
ENCODING 325
SWIDTH 877 0
DWIDTH 10 0
BBX 9 14 0 -5
BITMAP
550580
554580
5A8580
5A5580
566580
59A980
595580
591A40
591580
000000
009000
005000
005000
004000
ENDCHAR
STARTCHAR ncommaaccent
ENCODING 326
SWIDTH 787 0
DWIDTH 9 0
BBX 8 12 0 -4
BITMAP
5505
5646
5A86
5956
56A6
5556
546A
546A
0000
0150
0050
0180
ENDCHAR
STARTCHAR Ncaron
ENCODING 327
SWIDTH 877 0
DWIDTH 10 0
BBX 9 13 0 0
BITMAP
015400
016000
005000
000000
550580
554580
5A8580
5A5580
566580
59A980
595580
591A40
591580
ENDCHAR
STARTCHAR ncaron
ENCODING 328
SWIDTH 787 0
DWIDTH 9 0
BBX 8 11 0 0
BITMAP
0250
0150
0140
5505
5646
5A86
5956
56A6
5556
546A
546A
ENDCHAR
STARTCHAR Eng
ENCODING 330
SWIDTH 874 0
DWIDTH 10 0
BBX 9 13 0 -4
BITMAP
550580
554580
5A9580
5A6580
565580
59A580
595580
591580
591580
001680
001640
001A00
001400
ENDCHAR
STARTCHAR eng
ENCODING 331
SWIDTH 691 0
DWIDTH 8 0
BBX 7 11 0 -3
BITMAP
5514
5658
5A58
5958
5658
5558
5458
5458
0028
0064
0050
ENDCHAR
STARTCHAR Omacron
ENCODING 332
SWIDTH 933 0
DWIDTH 10 0
BBX 10 11 0 -1
BITMAP
005000
06A900
1A5A80
695690
590290
6801A0
590290
695690
165A80
065900
005400
ENDCHAR
STARTCHAR omacron
ENCODING 333
SWIDTH 833 0
DWIDTH 9 0
BBX 9 9 0 -1
BITMAP
06A400
166600
595940
590A40
680A40
595940
295A00
066500
015000
ENDCHAR
STARTCHAR Obreve
ENCODING 334
SWIDTH 933 0
DWIDTH 10 0
BBX 10 12 0 -1
BITMAP
015400
006000
06A900
1A5A80
695690
590290
6801A0
590290
695690
165A80
065900
005400
ENDCHAR
STARTCHAR obreve
ENCODING 335
SWIDTH 833 0
DWIDTH 9 0
BBX 9 11 0 -1
BITMAP
026000
004000
06A400
166600
595940
590A40
680A40
595940
295A00
066500
015000
ENDCHAR
STARTCHAR Ohungarumlaut
ENCODING 336
SWIDTH 933 0
DWIDTH 10 0
BBX 11 14 0 -1
BITMAP
001010
016564
064640
005000
06A900
1A5A80
695690
590290
6801A0
590290
695690
165A80
065900
005400
ENDCHAR
STARTCHAR ohungarumlaut
ENCODING 337
SWIDTH 833 0
DWIDTH 9 0
BBX 10 12 0 -1
BITMAP
019190
094940
000000
06A400
166600
595940
590A40
680A40
595940
295A00
066500
015000
ENDCHAR
STARTCHAR OE
ENCODING 338
SWIDTH 1317 0
DWIDTH 15 0
BBX 14 11 0 -1
BITMAP
00500000
06A92550
1A596AA0
69556000
59016500
68016500
59016500
69556000
16556AA0
06596AA0
00500000
ENDCHAR
STARTCHAR oe
ENCODING 339
SWIDTH 1174 0
DWIDTH 13 0
BBX 13 9 0 -1
BITMAP
06A55540
1446AA40
55565500
51025500
5006AA00
55564000
2552AA40
0666AA40
01500000
ENDCHAR
STARTCHAR Racute
ENCODING 340
SWIDTH 843 0
DWIDTH 9 0
BBX 9 13 0 0
BITMAP
001000
016400
064000
000000
5A9500
5AA940
595A40
595680
5AA640
595600
596900
591A00
591640
ENDCHAR
STARTCHAR Rcommaaccent
ENCODING 342
SWIDTH 843 0
DWIDTH 9 0
BBX 9 13 0 -4
BITMAP
5A9500
5AA940
595A40
595680
5AA640
595600
596900
591A00
591640
000000
015000
005000
015000
ENDCHAR
STARTCHAR rcommaaccent
ENCODING 343
SWIDTH 831 0
DWIDTH 9 0
BBX 9 12 0 -4
BITMAP
555400
6AA540
5AAA40
595A40
595540
5AAA00
596900
592900
000000
019000
009000
018000
ENDCHAR
STARTCHAR Rcaron
ENCODING 344
SWIDTH 843 0
DWIDTH 9 0
BBX 9 13 0 0
BITMAP
154000
064000
050000
000000
5A9500
5AA940
595A40
595680
5AA640
595600
596900
591A00
591640
ENDCHAR
STARTCHAR rcaron
ENCODING 345
SWIDTH 831 0
DWIDTH 9 0
BBX 9 11 0 0
BITMAP
016000
015000
005000
555400
6AA540
5AAA40
595A40
595540
5AAA00
596900
592900
ENDCHAR
STARTCHAR Sacute
ENCODING 346
SWIDTH 682 0
DWIDTH 8 0
BBX 7 14 0 -1
BITMAP
0004
0064
0150
0140
1AA4
5564
5940
5950
5A94
1568
0558
1568
59A4
0540
ENDCHAR
STARTCHAR sacute
ENCODING 347
SWIDTH 683 0
DWIDTH 8 0
BBX 7 12 0 0
BITMAP
0004
0064
0150
0000
1654
5AA4
5410
5950
1A98
0018
1968
5A94
ENDCHAR
STARTCHAR Scircumflex
ENCODING 348
SWIDTH 682 0
DWIDTH 8 0
BBX 7 14 0 -1
BITMAP
0240
0580
0550
0140
1AA4
5564
5940
5950
5A94
1568
0558
1568
59A4
0540
ENDCHAR
STARTCHAR scircumflex
ENCODING 349
SWIDTH 683 0
DWIDTH 8 0
BBX 7 11 0 0
BITMAP
0240
0580
0550
1654
5AA4
5410
5950
1A98
0018
1968
5A94
ENDCHAR
STARTCHAR Scedilla
ENCODING 350
SWIDTH 682 0
DWIDTH 8 0
BBX 7 14 0 -4
BITMAP
0140
1AA4
5564
5940
5950
5A94
1568
0558
1568
59A4
0640
0A40
0800
0A40
ENDCHAR
STARTCHAR scedilla
ENCODING 351
SWIDTH 683 0
DWIDTH 8 0
BBX 7 11 0 -3
BITMAP
1654
5AA4
5410
5950
1A98
0018
1968
5A94
0A40
0800
0A40
ENDCHAR
STARTCHAR Scaron
ENCODING 352
SWIDTH 682 0
DWIDTH 8 0
BBX 7 14 0 -1
BITMAP
0550
0580
0140
0140
1AA4
5564
5940
5950
5A94
1568
0558
1568
59A4
0540
ENDCHAR
STARTCHAR scaron
ENCODING 353
SWIDTH 683 0
DWIDTH 8 0
BBX 7 11 0 0
BITMAP
0550
0580
0140
1654
5AA4
5410
5950
1A98
0018
1968
5A94
ENDCHAR
STARTCHAR Tcommaaccent
ENCODING 354
SWIDTH 591 0
DWIDTH 7 0
BBX 6 12 0 -3
BITMAP
6AA0
6AA0
0940
0940
0940
0940
0940
0940
0A40
1A00
1400
1900
ENDCHAR
STARTCHAR tcommaaccent
ENCODING 355
SWIDTH 588 0
DWIDTH 6 0
BBX 6 11 0 -3
BITMAP
5550
6AA0
1950
0940
0940
0940
0940
0A40
1A00
1400
1900
ENDCHAR
STARTCHAR Tcaron
ENCODING 356
SWIDTH 591 0
DWIDTH 7 0
BBX 6 13 0 0
BITMAP
1540
0540
0500
0000
6AA0
6AA0
0940
0940
0940
0940
0940
0940
0940
ENDCHAR
STARTCHAR tcaron
ENCODING 357
SWIDTH 842 0
DWIDTH 9 0
BBX 9 8 0 0
BITMAP
555240
6AA140
195140
094100
094000
094000
094000
094000
ENDCHAR
STARTCHAR Tbar
ENCODING 358
SWIDTH 591 0
DWIDTH 7 0
BBX 6 9 0 0
BITMAP
6AA0
6AA0
0940
4950
4950
5950
0940
0940
0940
ENDCHAR
STARTCHAR tbar
ENCODING 359
SWIDTH 588 0
DWIDTH 6 0
BBX 6 8 0 0
BITMAP
5550
6AA0
1950
0940
5960
1950
0940
0940
ENDCHAR
STARTCHAR Utilde
ENCODING 360
SWIDTH 905 0
DWIDTH 10 0
BBX 10 13 0 -1
BITMAP
0AA640
155500
000000
580550
580650
580650
580650
580650
550550
655590
255540
065900
005000
ENDCHAR
STARTCHAR utilde
ENCODING 361
SWIDTH 795 0
DWIDTH 9 0
BBX 9 11 0 -1
BITMAP
1AA500
155400
541540
581640
581640
581640
581640
555600
195500
166400
015000
ENDCHAR
STARTCHAR Umacron
ENCODING 362
SWIDTH 905 0
DWIDTH 10 0
BBX 10 10 0 -1
BITMAP
580550
580650
580650
580650
580650
550550
655590
255540
065900
005000
ENDCHAR
STARTCHAR umacron
ENCODING 363
SWIDTH 795 0
DWIDTH 9 0
BBX 9 9 0 -1
BITMAP
541540
581640
581640
581640
581640
555600
195500
166400
015000
ENDCHAR
STARTCHAR Ubreve
ENCODING 364
SWIDTH 905 0
DWIDTH 10 0
BBX 10 12 0 -1
BITMAP
015400
005000
580550
580650
580650
580650
580650
550550
655590
255540
065900
005000
ENDCHAR
STARTCHAR ubreve
ENCODING 365
SWIDTH 795 0
DWIDTH 9 0
BBX 9 11 0 -1
BITMAP
016000
004000
541540
581640
581640
581640
581640
555600
195500
166400
015000
ENDCHAR
STARTCHAR Uring
ENCODING 366
SWIDTH 905 0
DWIDTH 10 0
BBX 10 14 0 -1
BITMAP
005000
015400
015400
005000
580550
580650
580650
580650
580650
550550
655590
255540
065900
005000
ENDCHAR
STARTCHAR uring
ENCODING 367
SWIDTH 795 0
DWIDTH 9 0
BBX 9 13 0 -1
BITMAP
004000
025000
025000
014000
541540
581640
581640
581640
581640
555600
195500
166400
015000
ENDCHAR
STARTCHAR Uhungarumlaut
ENCODING 368
SWIDTH 905 0
DWIDTH 10 0
BBX 11 14 0 -1
BITMAP
001010
016564
054540
000000
580550
580650
580650
580650
580650
550550
655590
255540
065900
005000
ENDCHAR
STARTCHAR uhungarumlaut
ENCODING 369
SWIDTH 795 0
DWIDTH 9 0
BBX 10 13 0 -1
BITMAP
004000
059590
190900
000000
541540
581640
581640
581640
581640
555600
195500
166400
015000
ENDCHAR
STARTCHAR Uogonek
ENCODING 370
SWIDTH 905 0
DWIDTH 10 0
BBX 10 12 0 -3
BITMAP
580550
580650
580650
580650
580650
550550
655590
255540
06A900
029000
014000
019000
ENDCHAR
STARTCHAR uogonek
ENCODING 371
SWIDTH 794 0
DWIDTH 9 0
BBX 9 11 0 -3
BITMAP
541540
581640
581640
581640
581640
555600
195500
16A400
069000
054000
054000
ENDCHAR
STARTCHAR Ycircumflex
ENCODING 374
SWIDTH 789 0
DWIDTH 9 0
BBX 9 13 0 0
BITMAP
018000
015000
015000
000000
581540
251900
165500
196400
065400
06A000
029000
029000
029000
ENDCHAR
STARTCHAR ycircumflex
ENCODING 375
SWIDTH 733 0
DWIDTH 8 0
BBX 8 11 0 0
BITMAP
0240
0190
0550
5415
6555
1964
1954
0690
0650
0650
0650
ENDCHAR
STARTCHAR Ydieresis
ENCODING 376
SWIDTH 789 0
DWIDTH 9 0
BBX 9 12 0 0
BITMAP
001400
152400
000000
581540
251900
165500
196400
065400
06A000
029000
029000
029000
ENDCHAR
STARTCHAR Zacute
ENCODING 377
SWIDTH 854 0
DWIDTH 9 0
BBX 9 13 0 0
BITMAP
000100
001900
009400
000000
6AA980
6A9640
555A40
015A40
069500
569000
655540
65AA80
6AAA80
ENDCHAR
STARTCHAR zacute
ENCODING 378
SWIDTH 714 0
DWIDTH 8 0
BBX 8 12 0 0
BITMAP
0004
0059
0150
0000
5554
6AA8
1654
0650
0990
1540
6A69
5AA9
ENDCHAR
STARTCHAR Zdotaccent
ENCODING 379
SWIDTH 854 0
DWIDTH 9 0
BBX 9 12 0 0
BITMAP
009000
019000
000000
6AA980
6A9640
555A40
015A40
069500
569000
655540
65AA80
6AAA80
ENDCHAR
STARTCHAR zdotaccent
ENCODING 380
SWIDTH 714 0
DWIDTH 8 0
BBX 8 11 0 0
BITMAP
0240
0280
0000
5554
6AA8
1654
0650
0990
1540
6A69
5AA9
ENDCHAR
STARTCHAR Zcaron
ENCODING 381
SWIDTH 854 0
DWIDTH 9 0
BBX 9 13 0 0
BITMAP
016000
015000
005000
000000
6AA980
6A9640
555A40
015A40
069500
569000
655540
65AA80
6AAA80
ENDCHAR
STARTCHAR zcaron
ENCODING 382
SWIDTH 714 0
DWIDTH 8 0
BBX 8 11 0 0
BITMAP
0550
0180
0140
5554
6AA8
1654
0650
0990
1540
6A69
5AA9
ENDCHAR
STARTCHAR florin
ENCODING 402
SWIDTH 388 0
DWIDTH 4 0
BBX 4 11 0 -1
BITMAP
01
19
19
19
59
59
18
18
18
58
50
ENDCHAR
STARTCHAR uni01C4
ENCODING 452
SWIDTH 1740 0
DWIDTH 19 0
BBX 19 13 0 0
BITMAP
0000002500
0000001500
0000001400
0000000000
5A9506AA64
5AA646A964
595A855564
5905901964
5905505A40
5905965900
595A869554
5AAA465AA4
6AA50AAAA4
ENDCHAR
STARTCHAR uni01C5
ENCODING 453
SWIDTH 1601 0
DWIDTH 18 0
BBX 17 11 0 0
BITMAP
0000005500
0000005400
5A95001400
5AA6455540
595A86A940
5905916A40
5905505500
590591A800
595A816400
5AAA456680
6AA506AA80
ENDCHAR
STARTCHAR Scommaaccent
ENCODING 536
SWIDTH 682 0
DWIDTH 8 0
BBX 7 14 0 -4
BITMAP
0140
1AA4
5564
5940
5950
5A94
1568
0558
1568
59A4
0540
0540
0140
0140
ENDCHAR
STARTCHAR scommaaccent
ENCODING 537
SWIDTH 683 0
DWIDTH 8 0
BBX 7 12 0 -4
BITMAP
1654
5AA4
5410
5950
1A98
0018
1968
5A94
0100
0540
0140
0140
ENDCHAR
STARTCHAR uni021A
ENCODING 538
SWIDTH 591 0
DWIDTH 7 0
BBX 6 14 0 -5
BITMAP
6AA0
6AA0
0940
0940
0940
0940
0940
0940
0940
0000
0640
0240
0600
0400
ENDCHAR
STARTCHAR uni021B
ENCODING 539
SWIDTH 588 0
DWIDTH 6 0
BBX 6 13 0 -5
BITMAP
5550
6AA0
1950
0940
0940
0940
0940
0940
0000
0640
0240
0600
0400
ENDCHAR
STARTCHAR uni0237
ENCODING 567
SWIDTH 393 0
DWIDTH 4 0
BBX 4 9 0 -1
BITMAP
15
19
19
19
19
19
69
69
64
ENDCHAR
STARTCHAR circumflex
ENCODING 710
SWIDTH 376 0
DWIDTH 4 0
BBX 4 3 0 8
BITMAP
24
19
55
ENDCHAR
STARTCHAR caron
ENCODING 711
SWIDTH 362 0
DWIDTH 4 0
BBX 4 3 0 8
BITMAP
55
18
14
ENDCHAR
STARTCHAR breve
ENCODING 728
SWIDTH 360 0
DWIDTH 4 0
BBX 4 2 0 8
BITMAP
55
14
ENDCHAR
STARTCHAR dotaccent
ENCODING 729
SWIDTH 255 0
DWIDTH 3 0
BBX 3 2 0 7
BITMAP
64
64
ENDCHAR
STARTCHAR ring
ENCODING 730
SWIDTH 330 0
DWIDTH 4 0
BBX 3 4 0 8
BITMAP
14
54
54
14
ENDCHAR
STARTCHAR ogonek
ENCODING 731
SWIDTH 250 0
DWIDTH 3 0
BBX 3 4 0 -3
BITMAP
10
50
50
54
ENDCHAR
STARTCHAR tilde
ENCODING 732
SWIDTH 665 0
DWIDTH 7 0
BBX 7 2 0 6
BITMAP
6AA4
5554
ENDCHAR
STARTCHAR hungarumlaut
ENCODING 733
SWIDTH 837 0
DWIDTH 9 0
BBX 9 3 0 8
BITMAP
010100
165640
646400
ENDCHAR
STARTCHAR uni0307
ENCODING 775
SWIDTH 260 0
DWIDTH 3 0
BBX 3 3 0 4
BITMAP
10
64
50
ENDCHAR
STARTCHAR uni030F
ENCODING 783
SWIDTH 554 0
DWIDTH 6 0
BBX 6 4 0 8
BITMAP
5140
2140
1480
1450
ENDCHAR
STARTCHAR uni0311
ENCODING 785
SWIDTH 375 0
DWIDTH 4 0
BBX 3 1 1 9
BITMAP
64
ENDCHAR
STARTCHAR uni0326
ENCODING 806
SWIDTH 274 0
DWIDTH 3 0
BBX 3 3 0 -4
BITMAP
54
14
54
ENDCHAR
STARTCHAR Omega
ENCODING 937
SWIDTH 92 0
DWIDTH 1 0
BBX 1 1 0 0
BITMAP
00
ENDCHAR
STARTCHAR uni00B5.dup2
ENCODING 956
SWIDTH 802 0
DWIDTH 9 0
BBX 9 9 0 -1
BITMAP
541540
591540
591540
591540
591540
595640
595900
596400
595000
ENDCHAR
STARTCHAR pi
ENCODING 960
SWIDTH 92 0
DWIDTH 1 0
BBX 1 1 0 0
BITMAP
00
ENDCHAR
STARTCHAR endash
ENCODING 8211
SWIDTH 473 0
DWIDTH 5 0
BBX 5 3 0 3
BITMAP
5540
5540
5540
ENDCHAR
STARTCHAR emdash
ENCODING 8212
SWIDTH 615 0
DWIDTH 7 0
BBX 6 3 0 3
BITMAP
5550
5550
5550
ENDCHAR
STARTCHAR quoteleft
ENCODING 8216
SWIDTH 254 0
DWIDTH 3 0
BBX 3 4 0 5
BITMAP
14
50
54
54
ENDCHAR
STARTCHAR quoteright
ENCODING 8217
SWIDTH 251 0
DWIDTH 3 0
BBX 3 4 0 5
BITMAP
54
54
54
50
ENDCHAR
STARTCHAR quotesinglbase
ENCODING 8218
SWIDTH 252 0
DWIDTH 3 0
BBX 3 4 0 -2
BITMAP
54
54
54
50
ENDCHAR
STARTCHAR quotedblleft
ENCODING 8220
SWIDTH 535 0
DWIDTH 6 0
BBX 6 4 0 5
BITMAP
1450
5140
5550
5550
ENDCHAR
STARTCHAR quotedblright
ENCODING 8221
SWIDTH 532 0
DWIDTH 6 0
BBX 6 4 0 5
BITMAP
5550
5550
5550
5140
ENDCHAR
STARTCHAR quotedblbase
ENCODING 8222
SWIDTH 533 0
DWIDTH 6 0
BBX 6 4 0 -2
BITMAP
5550
5550
5550
5140
ENDCHAR
STARTCHAR dagger
ENCODING 8224
SWIDTH 636 0
DWIDTH 7 0
BBX 7 9 0 0
BITMAP
0640
0680
6AA4
5A94
0680
0680
0680
0680
0680
ENDCHAR
STARTCHAR daggerdbl
ENCODING 8225
SWIDTH 648 0
DWIDTH 7 0
BBX 7 9 0 0
BITMAP
0680
1690
6AA4
5A94
0680
5A94
5A94
5694
0680
ENDCHAR
STARTCHAR bullet
ENCODING 8226
SWIDTH 501 0
DWIDTH 6 0
BBX 5 6 0 1
BITMAP
0400
2A40
5180
5080
6540
0500
ENDCHAR
STARTCHAR ellipsis
ENCODING 8230
SWIDTH 676 0
DWIDTH 7 0
BBX 7 2 0 0
BITMAP
6668
6668
ENDCHAR
STARTCHAR perthousand
ENCODING 8240
SWIDTH 447 0
DWIDTH 5 0
BBX 5 10 0 -1
BITMAP
0540
0540
0A00
0900
1500
1500
2800
2400
5400
5400
ENDCHAR
STARTCHAR guilsinglleft
ENCODING 8249
SWIDTH 465 0
DWIDTH 5 0
BBX 5 6 0 1
BITMAP
0140
1640
5940
5540
1640
0140
ENDCHAR
STARTCHAR guilsinglright
ENCODING 8250
SWIDTH 465 0
DWIDTH 5 0
BBX 5 6 0 1
BITMAP
5000
5900
5940
5540
6500
5000
ENDCHAR
STARTCHAR fraction
ENCODING 8260
SWIDTH 447 0
DWIDTH 5 0
BBX 5 10 0 -1
BITMAP
0540
0540
0A00
0900
1500
1500
2800
2400
5400
5400
ENDCHAR
STARTCHAR uni2074
ENCODING 8308
SWIDTH 528 0
DWIDTH 6 0
BBX 6 7 0 2
BITMAP
0500
1500
2900
5540
5550
6A90
0140
ENDCHAR
STARTCHAR Euro
ENCODING 8364
SWIDTH 781 0
DWIDTH 9 0
BBX 8 11 0 -1
BITMAP
0014
01AA
0995
1555
1A50
2950
5A50
1555
0955
0196
0015
ENDCHAR
STARTCHAR trademark
ENCODING 8482
SWIDTH 1503 0
DWIDTH 17 0
BBX 16 7 0 2
BITMAP
6AA25016
6AA2901A
06425456
06426466
06425656
06425A5A
05014545
ENDCHAR
STARTCHAR partialdiff
ENCODING 8706
SWIDTH 108 0
DWIDTH 1 0
BBX 1 1 0 0
BITMAP
00
ENDCHAR
STARTCHAR uni2206
ENCODING 8710
SWIDTH 108 0
DWIDTH 1 0
BBX 1 1 0 0
BITMAP
00
ENDCHAR
STARTCHAR product
ENCODING 8719
SWIDTH 521 0
DWIDTH 6 0
BBX 6 8 0 0
BITMAP
1500
1540
2640
5590
5590
2980
1940
1600
ENDCHAR
STARTCHAR summation
ENCODING 8721
SWIDTH 108 0
DWIDTH 1 0
BBX 1 1 0 0
BITMAP
00
ENDCHAR
STARTCHAR minus
ENCODING 8722
SWIDTH 555 0
DWIDTH 6 0
BBX 6 2 0 4
BITMAP
5550
6A90
ENDCHAR
STARTCHAR radical
ENCODING 8730
SWIDTH 108 0
DWIDTH 1 0
BBX 1 1 0 0
BITMAP
00
ENDCHAR
STARTCHAR infinity
ENCODING 8734
SWIDTH 108 0
DWIDTH 1 0
BBX 1 1 0 0
BITMAP
00
ENDCHAR
STARTCHAR integral
ENCODING 8747
SWIDTH 362 0
DWIDTH 4 0
BBX 4 11 0 -1
BITMAP
01
19
29
28
28
28
28
28
28
54
50
ENDCHAR
STARTCHAR approxequal
ENCODING 8776
SWIDTH 665 0
DWIDTH 7 0
BBX 7 5 0 3
BITMAP
6AA4
5554
0000
6AA4
5554
ENDCHAR
STARTCHAR notequal
ENCODING 8800
SWIDTH 473 0
DWIDTH 5 0
BBX 5 10 0 -1
BITMAP
0540
0540
5F40
6F40
6A40
6E40
7D40
7D40
5400
5400
ENDCHAR
STARTCHAR lessequal
ENCODING 8804
SWIDTH 108 0
DWIDTH 1 0
BBX 1 1 0 0
BITMAP
00
ENDCHAR
STARTCHAR greaterequal
ENCODING 8805
SWIDTH 108 0
DWIDTH 1 0
BBX 1 1 0 0
BITMAP
00
ENDCHAR
STARTCHAR lozenge
ENCODING 9674
SWIDTH 521 0
DWIDTH 6 0
BBX 6 8 0 0
BITMAP
1500
1540
2640
5590
5590
2980
1940
1600
ENDCHAR
STARTCHAR uniF8FF
ENCODING 63743
SWIDTH 108 0
DWIDTH 1 0
BBX 1 1 0 0
BITMAP
00
ENDCHAR
STARTCHAR uniFB01
ENCODING 64257
SWIDTH 962 0
DWIDTH 11 0
BBX 10 8 0 0
BITMAP
555550
5AA560
595160
5A5160
5A5160
595160
590160
590160
ENDCHAR
STARTCHAR uniFB02
ENCODING 64258
SWIDTH 1208 0
DWIDTH 13 0
BBX 13 8 0 0
BITMAP
55555000
5AA56000
59516000
5A516000
5A516000
59516000
59016A80
59016A80
ENDCHAR
STARTCHAR .notdef
ENCODING -1
SWIDTH 108 0
DWIDTH 1 0
BBX 1 1 0 0
BITMAP
00
ENDCHAR
ENDFONT
